<?xml version="1.0" encoding="UTF-8"?>
<svg xmlns="http://www.w3.org/2000/svg" width="512" height="512" viewBox="0 0 512 512"><g><path d="M476,64H448V36A28.031,28.031,0,0,0,420,8H92A28.031,28.031,0,0,0,64,36V64H36A28.031,28.031,0,0,0,8,92V396a28.031,28.031,0,0,0,28,28H189.39l-11.42,40H144a8,8,0,0,0-8,8v24a8,8,0,0,0,8,8H368a8,8,0,0,0,8-8V472a8,8,0,0,0-8-8H334.03l-11.42-40H476a28.031,28.031,0,0,0,28-28V92A28.031,28.031,0,0,0,476,64ZM80,36A12.01,12.01,0,0,1,92,24H420a12.01,12.01,0,0,1,12,12V56H80Zm0,36H432V316a12.01,12.01,0,0,1-12,12H272V264a32.041,32.041,0,0,0-31.15-31.99L208,225.44v-4.79A40.06,40.06,0,0,0,232,184V152a40.04,40.04,0,0,0-40-40H176a40.04,40.04,0,0,0-40,40v32a40.06,40.06,0,0,0,24,36.65v4.79l-32.85,6.57A32.041,32.041,0,0,0,96,264v64H92a12.01,12.01,0,0,1-12-12ZM232,280a8,8,0,0,0-8,8v40H144V288a8,8,0,0,0-16,0v40H112V264a16.021,16.021,0,0,1,16-16,7.537,7.537,0,0,0,1.57-.16l32.34-6.46a24,24,0,0,0,44.18,0l32.34,6.46A7.537,7.537,0,0,0,240,248a16.021,16.021,0,0,1,16,16v64H240V288A8,8,0,0,0,232,280ZM216,164.93V184a24.032,24.032,0,0,1-24,24H176a24.032,24.032,0,0,1-24-24v-8.19C165.89,175.27,194.86,173.16,216,164.93Zm-64-5.12V152a24.032,24.032,0,0,1,24-24h16a24.043,24.043,0,0,1,23.6,19.64C198.96,156.14,169.2,159.1,152,159.81ZM192,224v8a8,8,0,0,1-16,0v-8ZM360,480v8H152v-8ZM194.61,464l11.42-40h99.94l11.42,40ZM488,396a12.01,12.01,0,0,1-12,12H36a12.01,12.01,0,0,1-12-12V376H488Zm0-36H24V92A12.01,12.01,0,0,1,36,80H64V316a28.031,28.031,0,0,0,28,28H420a28.031,28.031,0,0,0,28-28V80h28a12.01,12.01,0,0,1,12,12Z"/><path d="M96,48h8a8,8,0,0,0,0-16H96a8,8,0,0,0,0,16Z"/><path d="M128,48h8a8,8,0,0,0,0-16h-8a8,8,0,0,0,0,16Z"/><path d="M160,48h8a8,8,0,0,0,0-16h-8a8,8,0,0,0,0,16Z"/><path d="M416,80H288a8,8,0,0,0-8,8V224a8,8,0,0,0,8,8H416a8,8,0,0,0,8-8V88A8,8,0,0,0,416,80ZM384,216H320V206a22.026,22.026,0,0,1,22-22h20a22.026,22.026,0,0,1,22,22Zm-48-68V132a12.01,12.01,0,0,1,12-12h8a12.01,12.01,0,0,1,12,12v16a12.01,12.01,0,0,1-12,12h-8A12.01,12.01,0,0,1,336,148Zm72,68h-8V206a38.064,38.064,0,0,0-26.45-36.2A27.989,27.989,0,0,0,384,148V132a28.031,28.031,0,0,0-28-28h-8a28.031,28.031,0,0,0-28,28v16a27.989,27.989,0,0,0,10.45,21.8A38.064,38.064,0,0,0,304,206v10h-8V96H408Z"/></g></svg>
